<?xml version="1.0" standalone="no"?>
<!DOCTYPE svg PUBLIC "-//W3C//DTD SVG 20010904//EN"
 "http://www.w3.org/TR/2001/REC-SVG-20010904/DTD/svg10.dtd">
<svg version="1.0" xmlns="http://www.w3.org/2000/svg"
 width="512.000000pt" height="512.000000pt" viewBox="0 0 512.000000 512.000000"
 preserveAspectRatio="xMidYMid meet">

<g transform="translate(0.000000,512.000000) scale(0.100000,-0.100000)"
fill="#000000" stroke="none">
<path d="M1720 4927 c-36 -12 -87 -35 -115 -51 -108 -64 -141 -110 -431 -616
-150 -261 -270 -477 -268 -480 3 -3 193 -114 422 -246 308 -178 420 -239 428
-230 6 6 217 369 469 806 252 437 465 805 473 818 l14 22 -463 0 c-453 -1
-466 -1 -529 -23z"/>
<path d="M2897 4675 c-94 -163 -157 -282 -153 -291 3 -8 100 -179 216 -379
115 -200 210 -366 210 -369 0 -2 -38 -26 -85 -52 -53 -29 -81 -50 -73 -55 35
-18 931 -250 937 -243 8 9 251 910 251 931 0 7 -39 -11 -86 -39 -47 -27 -87
-48 -88 -46 -2 1 -81 140 -177 307 -191 333 -233 389 -345 448 -99 52 -152 63
-308 63 l-141 0 -158 -275z"/>
<path d="M693 3151 c-408 -109 -470 -128 -455 -139 9 -7 47 -30 84 -50 38 -20
68 -41 68 -45 0 -4 -77 -141 -172 -305 -94 -163 -181 -319 -192 -347 -16 -40
-20 -74 -20 -165 0 -137 8 -165 98 -318 l62 -107 325 -2 324 -3 215 375 c118
206 219 375 223 375 4 0 44 -21 88 -46 44 -26 81 -45 83 -43 4 5 -247 937
-254 942 -3 3 -218 -52 -477 -122z"/>
<path d="M4102 3017 c-299 -172 -421 -246 -418 -257 3 -16 932 -1629 944
-1642 9 -8 439 739 464 806 11 28 22 89 25 136 10 157 6 166 -299 695 -149
258 -277 478 -283 487 -10 15 -56 -8 -433 -225z"/>
<path d="M2907 1223 l-347 -348 350 -350 350 -350 0 103 0 102 368 0 c405 0
420 2 537 63 88 47 151 116 227 249 l66 117 -157 273 -158 273 -441 3 -441 2
-3 105 -3 105 -348 -347z"/>
<path d="M354 1355 c18 -48 446 -776 474 -807 41 -46 137 -107 217 -139 l60
-24 578 -3 577 -3 0 496 0 495 -956 0 c-849 0 -955 -2 -950 -15z"/>
</g>
</svg>
